<?xml version="1.0" encoding="utf-8"?>
<!-- Generator: Adobe Illustrator 22.0.1, SVG Export Plug-In . SVG Version: 6.00 Build 0)  -->
<svg version="1.1" id="Layer_1" xmlns="http://www.w3.org/2000/svg" xmlns:xlink="http://www.w3.org/1999/xlink" x="0px" y="0px"
	 viewBox="0 0 32 32" style="enable-background:new 0 0 32 32;" xml:space="preserve">
<g>
	<path d="M12.7,11.9c-1.8,1-3.4,2.1-4.8,3.2c-0.3,0.2-0.5,0.4-0.7,0.6c-3.7,3.1-5.7,6.3-4.7,8c0.9,1.6,4.3,1.6,8.5,0.2
		c-1.5-0.1-2.7-0.6-3.2-1.5c-0.7-1.3-0.2-3.1,1.4-5.1c0.2-0.3,0.5-0.6,0.7-0.9c1.6-1.8,3.8-3.6,6.5-5.1c0.7-0.4,1.4-0.7,2-1.1
		c-0.1-0.4-0.3-0.7-0.5-1C16.2,10,14.4,10.9,12.7,11.9z"/>
	<path d="M27.3,7.4c-0.3-0.6-1.1-0.8-1.7-0.5c-0.3,0.2-0.5,0.5-0.6,0.8c-1.3,0-2.8,0.2-4.6,0.7c0.1,0.3,0.1,0.6,0.2,0.9
		c1.6-0.6,3-1,4.4-1.1c0,0.1,0.1,0.3,0.1,0.4c0.3,0.6,1.1,0.8,1.7,0.5C27.4,8.8,27.6,8,27.3,7.4z"/>
	<path d="M20.6,9.4c-0.1-0.3-0.1-0.6-0.2-0.9c-0.9-4.4-2.6-7.3-4.5-7.3s-3.5,2.9-4.4,7.2c0.8-1.3,1.8-2,2.9-2c1.3,0,2.5,1.1,3.4,3
		c0.2,0.3,0.3,0.7,0.5,1c0.9,2.3,1.4,5.4,1.4,8.9c0,0.6,0,1.2-0.1,1.8c0.4,0.1,0.8,0.1,1.2,0.2c0.2-1.6,0.3-3.4,0.3-5.3
		C21.2,13.6,21,11.4,20.6,9.4z"/>
	<path d="M19.4,23.5c-0.3,1.9-0.7,3.6-1.3,5c-0.1,0-0.3-0.1-0.4-0.1c-0.7,0-1.2,0.6-1.2,1.2c0,0.7,0.6,1.2,1.2,1.2
		c0.7,0,1.2-0.6,1.2-1.2c0-0.3-0.1-0.7-0.4-0.9c0.7-1.2,1.3-2.9,1.8-4.9C20.1,23.7,19.8,23.6,19.4,23.5z"/>
	<path d="M4.9,12c0.1-0.1,0.2-0.2,0.3-0.3c0.3-0.6,0.1-1.4-0.5-1.7C4.1,9.6,3.3,9.9,3,10.4c-0.3,0.6-0.1,1.4,0.5,1.7
		c0.3,0.2,0.6,0.2,1,0.1c0.6,1.1,1.5,2.2,2.8,3.4C7.5,15.4,7.8,15.2,8,15C6.7,14.1,5.6,13,4.9,12z"/>
	<path d="M25.5,16.3c0.7,1.4,0.9,2.6,0.3,3.5c-0.7,1.2-2.6,1.7-5,1.4c-0.4,0-0.8-0.1-1.2-0.2c-2.3-0.5-5-1.5-7.7-3
		c-0.8-0.5-1.5-0.9-2.2-1.4c-0.3,0.3-0.5,0.6-0.7,0.9c1.5,1.2,3.2,2.4,5.1,3.5c1.8,1,3.6,1.9,5.3,2.6c0.3,0.1,0.6,0.2,0.9,0.4
		c4.5,1.6,8.2,1.7,9.2,0C30.5,22.2,28.8,19.3,25.5,16.3z"/>
</g>
</svg>
